PathFileType	4	(X/Y/Z)	Kaydara																																																																																																																																																																																																																												
DataRate	CameraRate	NumFrames	NumMarkers	Units	OrigDataRate	OrigDataStartFrame	OrigNumFrames																																																																																																																																																																																																																								
60	60	4	74	mm	60	2011	203																																																																																																																																																																																																																								
Frame#	Time	N_lasi			N_rasi			N_rpsi			N_lpsi			N_fneck			N_bneck			N_fhead			N_rhead			N_lhead			N_rshld			N_relbtop			N_relbext			N_relblow			N_rwrext			N_rwrtop			N_rwrlow			N_lshld			N_lelblow			N_lelbtop			N_lwrext			N_lwrtop			N_lwrlow			N_rtopleg			N_ltopleg			N_rkneefr			N_rkneebk			N_rkneeis			N_lkneefr			N_lknssbk			N_lkneeis			N_rankfr			N_rankis			N_rankbk			N_lankfr			N_lankbk			N_lankis			D_lasi			D_rasi			D_lpsi			D_fneck			D_bneck			D_fhead			D_rhead			D_lhead			D_rshld			D_relbtop			D_relbext			D_relblow			D_rwrext			D_rwrtop			D_rwrlow			D_lshld			D_lelbext			D_lelblow			D_lelbtop			D_lwrext			D_lwrtop			D_lwrlow			D_rtopleg			D_ltopleg			D_rkneefr			D_rkneebk			D_rkneeis			D_lkneefr			D_lknssbk			D_lkneeis			D_rankfr			D_rankis			D_rankbk			D_lankfr			D_lankbk			D_lankis			D_rpsi			N_lelbext		
		X1	Y1	Z1	X2	Y2	Z2	X3	Y3	Z3	X4	Y4	Z4	X5	Y5	Z5	X6	Y6	Z6	X7	Y7	Z7	X8	Y8	Z8	X9	Y9	Z9	X10	Y10	Z10	X11	Y11	Z11	X12	Y12	Z12	X13	Y13	Z13	X14	Y14	Z14	X15	Y15	Z15	X16	Y16	Z16	X17	Y17	Z17	X18	Y18	Z18	X19	Y19	Z19	X20	Y20	Z20	X21	Y21	Z21	X22	Y22	Z22	X23	Y23	Z23	X24	Y24	Z24	X25	Y25	Z25	X26	Y26	Z26	X27	Y27	Z27	X28	Y28	Z28	X29	Y29	Z29	X30	Y30	Z30	X31	Y31	Z31	X32	Y32	Z32	X33	Y33	Z33	X34	Y34	Z34	X35	Y35	Z35	X36	Y36	Z36	X37	Y37	Z37	X38	Y38	Z38	X39	Y39	Z39	X40	Y40	Z40	X41	Y41	Z41	X42	Y42	Z42	X43	Y43	Z43	X44	Y44	Z44	X45	Y45	Z45	X46	Y46	Z46	X47	Y47	Z47	X48	Y48	Z48	X49	Y49	Z49	X50	Y50	Z50	X51	Y51	Z51	X52	Y52	Z52	X53	Y53	Z53	X54	Y54	Z54	X55	Y55	Z55	X56	Y56	Z56	X57	Y57	Z57	X58	Y58	Z58	X59	Y59	Z59	X60	Y60	Z60	X61	Y61	Z61	X62	Y62	Z62	X63	Y63	Z63	X64	Y64	Z64	X65	Y65	Z65	X66	Y66	Z66	X67	Y67	Z67	X68	Y68	Z68	X69	Y69	Z69	X70	Y70	Z70	X71	Y71	Z71	X72	Y72	Z72	X73	Y73	Z73	X74	Y74	Z74
																																																																																																																																																																																																																															
1	33.5	-535.63854	1235.06439	-83.60707	-510.6424	1268.15407	-310.31176	-251.72272	1235.56534	-362.07615	-277.55835	1205.14458	-4.12243	-404.16626	1614.83215	-191.36263	-241.67305	1668.60947	-169.45997	-454.93114	1791.20193	-185.32433	-258.86713	1777.84943	-235.02993	-315.06742	1778.17276	-89.09756	-237.93026	1650.89294	-323.08418	-295.39505	1718.96057	-583.53222	-377.27989	1718.86017	-544.41341	-291.16949	1769.66919	-503.99284	-375.17044	2066.54907	-571.81545	-338.2061	2072.96768	-540.63313	-349.10931	2053.81363	-498.35461	-307.15441	1525.728	77.8323	-347.1249	1203.09227	90.89984	-260.10496	1201.83823	91.1952	-281.4922	886.02707	103.579	-316.61547	880.04967	135.71024	-356.84242	890.62462	100.96013	-410.17212	1068.65639	-448.01495	-372.8809	1012.21504	41.42427	-430.52818	561.31924	-261.74158	-324.34971	579.11476	-329.64741	-369.56131	564.67518	-168.47092	-384.21494	540.24807	-102.95886	-258.75645	556.48701	-42.12484	-257.95317	548.05984	-191.7779	-295.5924	140.02545	-272.73043	-298.68839	154.64957	-193.08481	-216.72138	142.19018	-216.4884	-333.93513	192.88433	-120.32454	-262.20814	186.33451	-77.64151	-298.20814	165.33451	-161.64151	-460.70477	1037.89978	1742.51007	-425.14477	1056.51093	1457.76794	-263.81275	1131.80939	1746.41418	-416.30676	1565.16327	1601.57623	-276.91071	1593.0011	1607.56866	-455.50694	1774.35074	1599.83124	-290.15903	1734.05914	1525.24445	-302.72099	1731.81015	1681.78101	-335.08606	1559.31595	1439.81766	-415.62897	1423.58597	1165.58899	-454.97986	1459.20334	1222.30591	-361.23161	1482.55829	1203.87268	-491.99234	1700.05371	1209.39316	-436.97903	1713.89374	1193.69049	-420.57346	1694.26315	1241.55258	-327.85748	1549.9765	1803.85681	-425.75817	1466.74637	2010.08224	-335.8749	1474.73236	2031.1676	-390.03445	1425.05814	2069.40231	-452.12025	1700.5629	2035.33478	-408.10612	1704.92172	2031.39694	-399.42764	1687.91519	1983.36731	-331.92722	1004.62524	1409.7995	-320.4911	1009.76074	1810.2446	-373.92895	455.32192	1450.82886	-273.98296	491.05785	1423.47977	-282.1685	458.34034	1544.30252	-357.53811	448.52303	1771.47247	-244.98783	486.2112	1787.84012	-316.34932	444.33144	1680.10483	-323.68694	130.48142	1417.8215	-295.05033	126.53151	1482.65411	-243.43128	127.97379	1418.42789	-323.22552	135.13996	1792.71591	-250.57325	125.00674	1806.91254	-293.86608	124.36648	1733.44986	-236.60906	1146.05148	1529.44901	-331.68865	1174.58229	13.75186
2	33.517	-535.77202	1235.73807	-84.70942	-510.17811	1269.2865	-311.43301	-251.57616	1236.78246	-363.15895	-277.26749	1206.05576	-5.31205	-403.82309	1614.74457	-192.09965	-241.32988	1668.52203	-170.19697	-453.92387	1792.08527	-185.67287	-257.94195	1777.79053	-235.59671	-314.0394	1778.07709	-89.66187	-236.81194	1651.19919	-321.50082	-297.88279	1726.43158	-578.03974	-379.39213	1725.44632	-537.34753	-292.42167	1775.08392	-497.3698	-377.5116	2074.01764	-564.81121	-340.32162	2080.5452	-533.58162	-351.26614	2061.87866	-491.03622	-306.99026	1526.01517	76.99429	-347.20036	1203.27293	90.17603	-260.1652	1202.099	90.83487	-281.27956	886.40244	103.66455	-316.8574	880.40413	135.37402	-355.81982	890.31082	100.16626	-408.8118	1070.07042	-448.68011	-373.13839	1012.37656	41.02965	-430.39871	561.34594	-262.11803	-323.98045	579.14806	-329.83215	-369.6294	564.66595	-168.83818	-384.52461	540.33142	-103.30679	-259.23422	556.51043	-42.27763	-258.00028	548.10009	-191.82903	-295.48822	140.07182	-273.06637	-298.62473	154.63557	-193.21487	-216.6474	142.22273	-216.46744	-333.98338	192.86081	-120.40474	-262.30846	186.36463	-77.68714	-298.30846	165.36463	-161.68714	-460.52826	1037.92763	1742.5441	-424.92897	1056.51306	1457.78839	-263.66465	1131.83754	1746.48819	-416.58367	1565.14511	1601.40167	-277.24152	1593.0542	1607.43927	-456.03783	1774.35562	1599.5694	-290.5125	1733.8559	1525.39017	-303.54618	1731.89941	1681.80206	-335.36049	1559.30969	1439.65775	-415.35717	1423.17886	1165.47768	-454.82109	1458.75717	1222.15103	-361.12701	1482.23709	1203.70499	-492.50504	1699.32831	1209.28406	-437.48344	1713.41324	1193.52005	-420.81112	1693.91632	1241.50856	-328.008	1550.13382	1803.82111	-426.1216	1466.84769	2009.98444	-336.30707	1475.01434	2031.13861	-390.33287	1425.14801	2069.31473	-452.96261	1700.64011	2035.06516	-408.8821	1704.99985	2031.23657	-400.22495	1688.03802	1983.25897	-331.77925	1004.61662	1409.80011	-320.26619	1009.76547	1810.19562	-373.81054	455.33508	1450.84503	-273.87218	491.03783	1423.53851	-282.10459	458.32161	1544.34906	-357.45934	448.51131	1771.4415	-244.90656	486.21964	1787.87201	-316.26923	444.38797	1680.13	-323.65837	130.48792	1417.82928	-295.06006	126.52104	1482.59613	-243.40855	127.95238	1418.39432	-323.20301	135.16797	1792.70844	-250.60108	125.00516	1806.91559	-293.8353	124.35858	1733.42316	-236.48506	1146.10802	1529.53369	-331.65428	1174.81056	13.14515
3	33.533	-535.93578	1236.2645	-85.88272	-509.7279	1270.38467	-312.60691	-251.50961	1238.15414	-364.36398	-277.01807	1206.95824	-6.5836	-403.23639	1614.73495	-192.69472	-240.74316	1668.51227	-170.79205	-452.84664	1792.78427	-186.35952	-256.84742	1777.57538	-236.39902	-313.08098	1778.24509	-90.3969	-235.95036	1651.50391	-319.43775	-300.64034	1733.99002	-572.01508	-381.29074	1732.23221	-529.13826	-293.09769	1780.44296	-490.01823	-379.34158	2081.73492	-557.61082	-342.49294	2088.29681	-526.19804	-354.01012	2070.23636	-483.51086	-306.80161	1526.11862	76.2078	-347.35802	1203.4066	89.47929	-260.33056	1202.20451	90.50381	-281.2746	886.74713	103.63591	-317.11849	880.5645	134.98997	-355.7822	890.17403	99.4101	-407.22385	1071.64177	-449.4059	-373.77457	1012.62741	40.6148	-430.19432	561.3414	-262.61778	-323.6552	579.16542	-330.06706	-369.85703	564.72397	-169.10931	-384.82544	540.37521	-103.64232	-259.57752	556.58665	-42.37141	-258.06805	548.09845	-191.88961	-295.33798	140.08411	-273.21341	-298.5862	154.65747	-193.35337	-216.60078	142.23102	-216.45069	-334.05739	192.86343	-120.48636	-262.10537	186.31981	-77.01139	-298.10537	165.31981	-161.01139	-460.40924	1037.94327	1742.5058	-424.6452	1056.54388	1457.63916	-263.54151	1131.86623	1746.56464	-416.94618	1565.07202	1601.25931	-277.47185	1593.16666	1607.29355	-456.33049	1774.31473	1599.38461	-290.87845	1733.6969	1525.30228	-303.50164	1731.89209	1681.42456	-335.54756	1559.2598	1439.44611	-415.10849	1422.67914	1165.25513	-454.87675	1458.04886	1222.01088	-361.08223	1481.73462	1203.47008	-492.87056	1698.7645	1209.02428	-437.86034	1712.84592	1193.35304	-421.3274	1693.11829	1241.03432	-328.31184	1550.10803	1803.71063	-426.57173	1466.97723	2009.86755	-336.66588	1475.27969	2031.13556	-390.71579	1425.23773	2069.17343	-453.75504	1700.72433	2034.95621	-409.62997	1705.1091	2031.12778	-400.75779	1688.16513	1983.28308	-331.60179	1004.63234	1409.82742	-320.05772	1009.804	1810.26886	-373.72505	455.35019	1450.83832	-273.75353	491.02966	1423.57697	-282.04594	458.32165	1544.31244	-357.38403	448.52146	1771.45889	-244.8259	486.20441	1787.91245	-316.12839	444.3927	1680.12268	-323.65372	130.49055	1417.84286	-295.01017	126.53615	1482.63901	-243.38354	127.96284	1418.36746	-323.1992	135.17	1792.71332	-250.56271	124.97864	1806.89392	-293.79654	124.38257	1733.44528	-236.31296	1146.19141	1529.71283	-331.7136	1174.93752	12.5666
4	33.55	-536.12026	1236.70883	-87.01638	-509.3589	1271.43364	-313.67786	-251.51911	1239.72	-365.76347	-276.82795	1207.88155	-7.87248	-402.59632	1614.68948	-193.34162	-240.10307	1668.4668	-171.43894	-451.91811	1793.33313	-187.17836	-256.25685	1777.0575	-237.64614	-311.89709	1778.40393	-91.47688	-235.19314	1651.81396	-317.08359	-303.08105	1741.68228	-565.1033	-383.07961	1739.05563	-520.54001	-293.78553	1786.07269	-482.05509	-380.46284	2089.96002	-550.90214	-344.76135	2096.13892	-518.69194	-358.04375	2078.61725	-476.17527	-306.61755	1526.17584	75.56141	-347.64946	1203.43628	88.69654	-260.58311	1202.37244	89.79268	-281.35111	886.94267	103.56782	-317.31506	880.69031	134.69357	-355.3558	889.84421	98.4095	-405.73273	1073.4304	-450.21168	-374.28135	1012.70241	40.15983	-429.95598	561.33747	-263.2118	-323.36712	579.16775	-330.35625	-369.96525	564.75189	-169.42671	-385.03498	540.38364	-104.02639	-259.79185	556.64997	-42.51795	-258.08758	548.12309	-192.04399	-295.16741	140.10066	-273.37681	-298.52118	154.64818	-193.49665	-216.47692	142.25295	-216.52994	-334.02832	192.84992	-120.68096	-261.94977	186.33913	-76.36901	-297.94977	165.33913	-160.36901	-460.1952	1037.95654	1742.48322	-424.39804	1056.54625	1457.52563	-263.41053	1131.92566	1746.63223	-417.17331	1565.04944	1601.07941	-277.65789	1593.16879	1607.22168	-456.75957	1774.27628	1599.21692	-291.24004	1733.60291	1524.98627	-303.90886	1732.03674	1681.20667	-335.73967	1559.2012	1439.25262	-414.91665	1422.11426	1165.08675	-454.94263	1457.5	1221.97762	-361.13983	1481.37131	1203.321	-493.12904	1698.16452	1208.67851	-438.16105	1712.23633	1193.0838	-421.65745	1693.00964	1241.05515	-328.55366	1550.21088	1803.62274	-426.94057	1467.08099	2009.73755	-337.06768	1475.47211	2031.20468	-391.17878	1425.37842	2068.96774	-454.54407	1700.80566	2034.89792	-410.55344	1705.26627	2031.03363	-401.56525	1688.43704	1983.30063	-331.43116	1004.617	1409.9292	-319.79464	1009.93904	1810.45319	-373.60428	455.36789	1450.79697	-273.61996	491.01124	1423.63602	-281.94059	458.30864	1544.35211	-357.26593	448.53878	1771.47339	-244.76261	486.19984	1787.92984	-316.01574	444.39838	1680.12375	-323.61855	130.48539	1417.86728	-295.00486	126.53372	1482.64435	-243.3864	127.93663	1418.44635	-323.24802	135.14059	1792.66098	-250.49904	125.03557	1807.01019	-293.7981	124.37149	1733.42499	-236.0346	1146.09642	1529.98886	-331.88347	1175.04379	11.75501
